# File created by Blade
# Date/Time:  Tue Apr 07 20:45:29 2015
#---------------------------------------------------------
:version 1.10
:name HOM
:units
  mass 1.0
  length 1.000000
  angle deg
:documentation
     Acclaim Skeleton File
:root
   axis xyz
   order TX TY TZ RX RY RZ
   position 0.000000 0.000000 0.000000
   orientation 0 0 0
:bonedata
   begin
      id 1
      name Spine_dum
      direction 0.000000 1.000000 0.000000
      length 4.885285
      axis 0.0 0.0 0.0 xyz
   end
   begin
      id 2
      name LeftUpLeg_dum
      direction 1.000000 0.000000 0.000000
      length 2.672193
      axis 0.0 0.0 0.0 xyz
   end
   begin
      id 3
      name RightUpLeg_dum
      direction -1.000000 0.000000 0.000000
      length 2.672193
      axis 0.0 0.0 0.0 xyz
   end
   begin
      id 4
      name Spine
      direction 0.000000 1.000000 0.000000
      length 0.000000
      axis 0.0 0.0 0.0 xyz
      dof rx ry rz
   end
   begin
      id 5
      name Spine_dum1
      direction 0.000000 1.000000 0.000000
      length 16.494159
      axis 0.0 0.0 0.0 xyz
   end
   begin
      id 6
      name Spine_dum2
      direction 0.000000 1.000000 0.000000
      length 10.663448
      axis 0.0 0.0 0.0 xyz
   end
   begin
      id 7
      name Spine_dum3
      direction 0.000000 1.000000 0.000000
      length 10.663448
      axis 0.0 0.0 0.0 xyz
   end
   begin
      id 8
      name Head
      direction 0.000000 1.000000 0.000000
      length 4.527550
      axis 0.0 0.0 0.0 xyz
      dof rx ry rz
   end
   begin
      id 9
      name LeftShoulder
      direction 1.000000 0.000000 0.000000
      length 7.531907
      axis 0.0 0.0 -90.0 xyz
      dof rx ry rz
   end
   begin
      id 10
      name LeftArm
      direction 1.000000 0.000000 0.000000
      length 10.229199
      axis 0.0 0.0 -90.0 xyz
      dof rx ry rz
   end
   begin
      id 11
      name LeftForeArm
      direction 1.000000 0.000000 0.000000
      length 8.673495
      axis 0.0 0.0 -90.0 xyz
      dof ry rz rx
   end
   begin
      id 12
      name LeftHand
      direction 0.000000 0.000000 0.000000
      length 0.000000
      axis 0.0 0.0 -90.0 xyz
      dof rx ry rz
   end
   begin
      id 13
      name LeftHand_dum1
      direction 0.000000 0.000000 0.000000
      length 0.000000
      axis 0.0 0.0 -90.0 xyz
   end
   begin
      id 14
      name LeftHand_dum2
      direction 1.000000 0.000000 0.000000
      length 3.937000
      axis 0.0 0.0 -90.0 xyz
   end
   begin
      id 15
      name LeftHandThumb1
      direction 0.000000 0.000000 1.000000
      length 3.937000
      axis 0.0 0.0 -90.0 xyz
      dof rx rz ry
   end
   begin
      id 16
      name RightShoulder
      direction -1.000000 0.000000 0.000000
      length 7.531907
      axis 0.0 0.0 90.0 xyz
      dof rx ry rz
   end
   begin
      id 17
      name RightArm
      direction -1.000000 0.000000 0.000000
      length 10.229199
      axis 0.0 0.0 90.0 xyz
      dof rx ry rz
   end
   begin
      id 18
      name RightForeArm
      direction -1.000000 0.000000 0.000000
      length 8.673495
      axis 0.0 0.0 90.0 xyz
      dof ry rz rx
   end
   begin
      id 19
      name RightHand
      direction 0.000000 0.000000 0.000000
      length 0.000000
      axis 0.0 0.0 90.0 xyz
      dof rx ry rz
   end
   begin
      id 20
      name RightHand_dum1
      direction 0.000000 0.000000 0.000000
      length 0.000000
      axis 0.0 0.0 90.0 xyz
   end
   begin
      id 21
      name RightHand_dum2
      direction -1.000000 0.000000 0.000000
      length 3.937000
      axis 0.0 0.0 90.0 xyz
   end
   begin
      id 22
      name RightHandThumb1
      direction 0.000000 0.000000 1.000000
      length 3.937000
      axis 0.0 0.0 90.0 xyz
      dof rx rz ry
   end
   begin
      id 23
      name LeftUpLeg
      direction 0.000000 -1.000000 0.000000
      length 16.263388
      axis 0.0 0.0 0.0 xyz
      dof rx ry rz
   end
   begin
      id 24
      name LeftLeg
      direction 0.000000 -1.000000 0.000000
      length 14.328163
      axis 0.0 0.0 0.0 xyz
      dof rx ry rz
   end
   begin
      id 25
      name LeftFoot
      direction 0.000000 -0.258819 0.965926
      length 5.031290
      axis 15.0 0.0 0.0 xyz
      dof rx ry rz
   end
   begin
      id 26
      name LeftToeBase
      direction 0.000000 0.000000 1.000000
      length 2.952750
      axis 0.0 0.0 0.0 xyz
      dof rx ry rz
   end
   begin
      id 27
      name RightUpLeg
      direction 0.000000 -1.000000 0.000000
      length 16.263388
      axis 0.0 0.0 0.0 xyz
      dof rx ry rz
   end
   begin
      id 28
      name RightLeg
      direction 0.000000 -1.000000 0.000000
      length 14.328163
      axis 0.0 0.0 0.0 xyz
      dof rx ry rz
   end
   begin
      id 29
      name RightFoot
      direction 0.000000 -0.258819 0.965926
      length 5.031290
      axis 15.0 0.0 0.0 xyz
      dof rx ry rz
   end
   begin
      id 30
      name RightToeBase
      direction 0.000000 0.000000 1.000000
      length 2.952750
      axis 0.0 0.0 0.0 xyz
      dof rx ry rz
   end
:hierarchy
   begin
      root Spine_dum LeftUpLeg_dum RightUpLeg_dum
      Spine_dum Spine
      LeftUpLeg_dum LeftUpLeg
      RightUpLeg_dum RightUpLeg
      Spine Spine_dum1 Spine_dum2 Spine_dum3
      Spine_dum1 Head
      Spine_dum2 LeftShoulder
      Spine_dum3 RightShoulder
      LeftShoulder LeftArm
      LeftArm LeftForeArm
      LeftForeArm LeftHand
      LeftHand LeftHand_dum1 LeftHand_dum2
      LeftHand_dum1 LeftHandThumb1
      RightShoulder RightArm
      RightArm RightForeArm
      RightForeArm RightHand
      RightHand RightHand_dum1 RightHand_dum2
      RightHand_dum1 RightHandThumb1
      LeftUpLeg LeftLeg
      LeftLeg LeftFoot
      LeftFoot LeftToeBase
      RightUpLeg RightLeg
      RightLeg RightFoot
      RightFoot RightToeBase
   end

# File created by Blade
# Date/Time:  Tue Apr 07 20:45:22 2015
# Frame Rate: 120.000 fps
#------------------------------------------------------
:FULLY-SPECIFIED
:DEGREES
168
root 3.505145 32.894411 -5.639423 7.943773 -10.721049 -5.963263
Spine 5.647774 3.079273 0.533173
Head 8.565324 -3.418078 6.877305
LeftShoulder -14.226606 43.070257 13.565726
LeftArm 56.019002 4.565314 -86.506820
LeftForeArm -4.230597 0.000000 9.455081
LeftHand 6.167311 0.000000 8.160023
LeftHandThumb1 -26.253704 0.000000 33.147579
RightShoulder 3.234199 3.098383 -14.866307
RightArm 25.784618 -3.102957 90.630219
RightForeArm 14.360578 0.000000 23.443040
RightHand 9.965125 -0.000000 -6.766484
RightHandThumb1 -24.326973 -0.000000 -32.862282
LeftUpLeg -12.756484 1.290958 0.390722
LeftLeg 10.519590 -0.000000 -0.000000
LeftFoot -8.214307 12.820031 -12.484821
LeftToeBase -10.116025 -0.000000 0.000000
RightUpLeg -43.354404 -11.937738 4.864504
RightLeg 56.653673 -0.000000 -0.000000
RightFoot 16.010213 5.658794 16.039375
RightToeBase 2.503470 -0.000000 -0.000000
169
root 3.538681 32.891684 -5.678547 7.797404 -10.812480 -6.139586
Spine 6.154802 3.356821 0.796906
Head 8.065649 -3.475008 6.830700
LeftShoulder -14.128287 42.949459 13.659378
LeftArm 56.160795 4.840463 -86.271272
LeftForeArm -4.193367 -0.000000 9.962466
LeftHand 6.224256 -0.000000 8.334614
LeftHandThumb1 -26.253704 0.000000 33.147579
RightShoulder 3.458305 3.385797 -14.938639
RightArm 26.021371 -3.129374 90.852293
RightForeArm 15.236458 0.000000 23.209769
RightHand 10.081710 -0.000000 -6.621966
RightHandThumb1 -24.326973 -0.000000 -32.862282
LeftUpLeg -12.730178 1.532305 0.432596
LeftLeg 10.650753 -0.000000 -0.000000
LeftFoot -8.114984 13.043504 -11.825189
LeftToeBase -10.272624 -0.000000 0.000000
RightUpLeg -44.643881 -12.817137 5.221660
RightLeg 58.482804 -0.000000 -0.000000
RightFoot 16.756961 4.890426 16.406487
RightToeBase 2.995856 -0.000000 -0.000000
170
root 3.563830 32.892489 -5.721566 7.683165 -10.882192 -6.364501
Spine 6.653937 3.657036 1.104759
Head 7.531253 -3.548929 6.796472
LeftShoulder -14.037082 42.817258 13.748570
LeftArm 56.322017 5.085507 -86.033095
LeftForeArm -4.058932 -0.000000 10.481804
LeftHand 6.195939 0.000000 8.428653
LeftHandThumb1 -26.253704 0.000000 33.147579
RightShoulder 3.646464 3.683491 -14.954204
RightArm 26.261386 -3.098902 91.071677
RightForeArm 16.164562 -0.000000 22.888534
RightHand 10.385705 0.000000 -6.342441
RightHandThumb1 -24.326973 -0.000000 -32.862282
LeftUpLeg -12.685588 1.410726 0.599991
LeftLeg 10.702695 -0.000000 -0.000000
LeftFoot -7.934044 13.482771 -11.240355
LeftToeBase -10.909057 -0.000000 0.000000
RightUpLeg -45.952428 -13.656841 5.661213
RightLeg 60.232783 -0.000000 -0.000000
RightFoot 17.285940 4.106408 16.056927
RightToeBase 3.429472 -0.000000 -0.000000
171
root 3.594384 32.893168 -5.764987 7.620520 -10.944558 -6.550884
Spine 7.083439 3.935428 1.392955
Head 7.012474 -3.610448 6.723070
LeftShoulder -13.976091 42.712973 13.808112
LeftArm 56.515290 5.379558 -85.708890
LeftForeArm -4.072033 -0.000000 10.992036
LeftHand 6.239419 -0.000000 8.602051
LeftHandThumb1 -26.253704 0.000000 33.147579
RightShoulder 3.834279 3.904868 -14.994607
RightArm 26.550768 -3.299947 91.172291
RightForeArm 17.318560 -0.000000 22.617632
RightHand 10.528457 -0.000000 -6.376930
RightHandThumb1 -24.326973 -0.000000 -32.862282
LeftUpLeg -12.722551 1.408212 0.715651
LeftLeg 10.807799 -0.000000 -0.000000
LeftFoot -7.771087 13.695517 -10.781879
LeftToeBase -10.887218 -0.000000 0.000000
RightUpLeg -47.370722 -14.478879 6.075629
RightLeg 62.005396 -0.000000 -0.000000
RightFoot 17.739077 3.388538 15.467811
RightToeBase 3.986429 -0.000000 -0.000000
172
root 3.620572 32.894672 -5.810481 7.549244 -11.090155 -6.719377
Spine 7.535060 4.335222 1.631003
Head 6.444554 -3.720139 6.724098
LeftShoulder -13.906524 42.591053 13.916222
LeftArm 56.708728 5.643449 -85.413728
LeftForeArm -3.877529 -0.000000 11.525762
LeftHand 6.245732 0.000000 8.725427
LeftHandThumb1 -26.253704 0.000000 33.147579
RightShoulder 4.039825 4.168194 -15.010268
RightArm 26.723973 -3.394350 91.288001
RightForeArm 18.750541 -0.000000 22.416042
RightHand 10.810101 0.000000 -6.171502
RightHandThumb1 -24.326973 -0.000000 -32.862282
LeftUpLeg -12.748959 1.482611 0.823017
LeftLeg 10.911846 -0.000000 -0.000000
LeftFoot -7.796906 13.873968 -10.722487
LeftToeBase -10.789517 -0.000000 0.000000
RightUpLeg -48.810191 -15.211143 6.476214
RightLeg 63.726230 -0.000000 -0.000000
RightFoot 18.221216 2.623970 15.136565
RightToeBase 4.601183 -0.000000 -0.000000
173
root 3.656873 32.895792 -5.853453 7.515466 -11.148285 -6.859097
Spine 7.938380 4.638137 1.886700
Head 5.873572 -3.818785 6.674373
LeftShoulder -13.881131 42.480838 13.965863
LeftArm 56.891545 5.924512 -85.088591
LeftForeArm -3.754157 -0.000000 12.096778
LeftHand 6.307411 -0.000000 8.738835
LeftHandThumb1 -26.253704 0.000000 33.147579
RightShoulder 4.261013 4.419670 -15.030285
RightArm 26.911900 -3.281663 91.537981
RightForeArm 19.762281 0.000000 22.134062
RightHand 11.061142 -0.000000 -5.901219
RightHandThumb1 -24.326973 -0.000000 -32.862282
LeftUpLeg -12.826243 1.396404 0.901279
LeftLeg 11.005179 -0.000000 -0.000000
LeftFoot -7.649264 14.173984 -10.336781
LeftToeBase -11.262820 -0.000000 0.000000
RightUpLeg -50.320286 -15.993532 6.850583
RightLeg 65.410518 -0.000000 -0.000000
RightFoot 18.726138 1.933811 14.957840
RightToeBase 5.341643 -0.000000 -0.000000
174
root 3.685507 32.899437 -5.899452 7.469605 -11.254087 -7.061550
Spine 8.392202 5.046893 2.200109
Head 5.261443 -3.924954 6.616685
LeftShoulder -13.812474 42.349286 14.053890
LeftArm 57.082850 6.206425 -84.729169
LeftForeArm -3.570394 -0.000000 12.692539
LeftHand 6.250736 0.000000 8.917840
LeftHandThumb1 -26.253704 0.000000 33.147579
RightShoulder 4.455776 4.658836 -15.011637
RightArm 27.098502 -3.175445 91.750128
RightForeArm 20.876141 0.000000 21.875126
RightHand 11.429501 0.000000 -5.776717
RightHandThumb1 -24.326973 -0.000000 -32.862282
LeftUpLeg -12.882889 1.415356 1.032638
LeftLeg 11.112199 -0.000000 -0.000000
LeftFoot -7.253393 14.450498 -9.499502
LeftToeBase -12.191275 -0.000000 0.000000
RightUpLeg -51.810336 -16.656751 7.297000
RightLeg 66.973757 -0.000000 -0.000000
RightFoot 19.349328 1.117505 14.685456
RightToeBase 5.644627 -0.000000 -0.000000
175
root 3.710777 32.905295 -5.947828 7.445746 -11.325753 -7.255532
Spine 8.826633 5.429817 2.495282
Head 4.626728 -4.096203 6.640509
LeftShoulder -13.728986 42.251903 14.141148
LeftArm 57.300484 6.489449 -84.367598
LeftForeArm -3.145133 -0.000000 13.254296
LeftHand 6.353068 -0.000000 9.520721
LeftHandThumb1 -26.253704 0.000000 33.147579
RightShoulder 4.659897 4.915750 -14.963226
RightArm 27.273751 -3.021853 91.987627
RightForeArm 21.942161 -0.000000 21.561962
RightHand 11.687444 -0.000000 -5.521119
RightHandThumb1 -24.326973 -0.000000 -32.862282
LeftUpLeg -12.987606 1.365644 1.188459
LeftLeg 11.277053 -0.000000 -0.000000
LeftFoot -7.157505 14.715002 -9.076328
LeftToeBase -12.172834 -0.000000 0.000000
RightUpLeg -53.324704 -17.279852 7.722218
RightLeg 68.471978 -0.000000 -0.000000
RightFoot 19.958374 0.401235 14.320511
RightToeBase 5.664978 -0.000000 -0.000000
176
root 3.735183 32.909800 -5.997071 7.456526 -11.416938 -7.450654
Spine 9.232910 5.839915 2.790635
Head 3.973242 -4.242049 6.651023
LeftShoulder -13.669303 42.167164 14.224044
LeftArm 57.479530 6.618146 -84.180126
LeftForeArm -2.766021 -0.000000 13.906853
LeftHand 6.309378 0.000000 9.708815
LeftHandThumb1 -26.253704 0.000000 33.147579
RightShoulder 4.846319 5.159765 -14.902391
RightArm 27.460534 -2.894122 92.205249
RightForeArm 23.002445 -0.000000 21.222270
RightHand 11.991895 -0.000000 -5.231131
RightHandThumb1 -24.326973 -0.000000 -32.862282
LeftUpLeg -13.118659 1.355611 1.332247
LeftLeg 11.415647 -0.000000 -0.000000
LeftFoot -7.069330 15.005142 -8.730621
LeftToeBase -12.557078 -0.000000 0.000000
RightUpLeg -54.894089 -17.794918 8.146469
RightLeg 69.928233 -0.000000 -0.000000
RightFoot 20.544267 -0.191827 13.846555
RightToeBase 5.797469 -0.000000 -0.000000
177
root 3.758739 32.913361 -6.046311 7.480357 -11.493986 -7.662058
Spine 9.630984 6.249422 3.111430
Head 3.309672 -4.373942 6.670084
LeftShoulder -13.602668 42.040498 14.344346
LeftArm 57.568977 6.675221 -84.133623
LeftForeArm -2.758249 -0.000000 14.597007
LeftHand 6.442446 -0.000000 9.320585
LeftHandThumb1 -26.253704 0.000000 33.147579
RightShoulder 5.040191 5.390421 -14.837759
RightArm 27.641091 -2.789627 92.380882
RightForeArm 24.022257 0.000000 20.876259
RightHand 12.238110 -0.000000 -4.779204
RightHandThumb1 -24.326973 -0.000000 -32.862282
LeftUpLeg -13.257814 1.273626 1.500404
LeftLeg 11.537545 -0.000000 -0.000000
LeftFoot -7.042632 15.320944 -8.538154
LeftToeBase -12.342318 -0.000000 0.000000
RightUpLeg -56.488129 -18.294347 8.587388
RightLeg 71.323658 -0.000000 -0.000000
RightFoot 21.167836 -0.728103 13.485036
RightToeBase 6.017102 -0.000000 -0.000000
